<?xml version="1.0" encoding="utf-8"?>
<!-- Generator: Adobe Illustrator 19.1.0, SVG Export Plug-In . SVG Version: 6.00 Build 0)  -->
<svg version="1.1" id="Layer_1" xmlns="http://www.w3.org/2000/svg" xmlns:xlink="http://www.w3.org/1999/xlink" x="0px" y="0px"
	 viewBox="0 0 1239 297.532" style="enable-background:new 0 0 1239 297.532;" xml:space="preserve">
<style type="text/css">
	.st0{fill:#065FA3;}
	.st1{fill:#FFFFFF;}
</style>
<g>
	<path class="st0" d="M179.223,39.958c0.841-14.716,13.54-27.194,26.606-30.906C238.43-0.203,255.87,1.5,314.326,1.02
		c-35.037,31.362-63.013,80.77-56.744,129.113c-12.599-10.293-21.087-25.039-32.026-36.821c4.048-7.888,8.195-15.656,10.552-24.583
		c3.858-14.625,14.41-18.079,27.763-17.673c1.006,0.031-0.785-11.264-4.483-12.266c-9.953-2.692-18.386,0.517-29.939-3.963
		c-3.726-1.446-7.916,0.515-11.036,2.108c-9.485,4.844-15.489,15.198-26.162,18.484L179.223,39.958z"/>
	<path class="st0" d="M0.506,30.498C20.471,16.877,39.774,7.471,63.451,3.146c29.836-5.449,62.146-5.85,84.442,15.628
		c42.072,40.526,76.149,83.062,113.07,129.384c1.456,1.826,1.334,6.807,0.061,7.531c-26.223,14.934-52.191,27.219-80.155,37.526
		c-4.448,1.64-10.056-0.314-12.834-2.839c-42.079-38.234-70.912-84.006-111.293-123.796C41.172,51.236,22.467,40.277,1.571,33.784
		C-0.104,33.265-0.407,31.12,0.506,30.498z"/>
	<path class="st0" d="M147.581,217.084c-30.368,21.62-56.287,48.553-75.499,80.448c-7.338-31.283-7.83-64.307,3.03-94.689
		c10.566-29.561,12.583-58.292,13.989-89.107c19.191,22.112,40.994,46.55,58.949,68.728L147.581,217.084z"/>
	<path class="st1" d="M225.556,93.313c4.048-7.888,8.195-15.656,10.552-24.583c3.858-14.625,14.41-18.079,27.763-17.673
		c1.006,0.031-0.785-11.264-4.483-12.266c-9.953-2.692-18.386,0.517-29.939-3.963c-3.726-1.446-7.916,0.515-11.036,2.108
		c-9.485,4.844-15.489,15.198-26.162,18.484L225.556,93.313z"/>
	<path d="M414.247,100.087H394.79c-14.487-17.524-34.081-40.568-43.325-56.573h-0.277v56.573h-22.904V3.5h21.111
		c13.936,17.11,34.771,42.221,41.671,55.33h0.275V3.5h22.906V100.087z"/>
	<path d="M481.717,3.5l36.704,96.587h-30.91l-7.588-23.044h-29.941l-9.245,23.044h-22.766L457.295,3.5H481.717z M475.232,61.727
		c-3.172-11.453-5.932-20.696-9.383-34.494h-0.275c-3.726,13.798-7.038,23.041-10.624,34.494H475.232z"/>
	<path d="M527.664,100.087V21.574h-27.871V3.5h84.859v18.074h-27.873v78.513H527.664z"/>
	<path d="M594.023,100.087V3.5h29.112v96.587H594.023z"/>
	<path d="M630.15,50.689c0-27.045,20.284-48.845,48.018-48.845c27.733,0,48.017,21.8,48.017,48.845
		c0,28.837-18.351,51.054-48.017,51.054C648.501,101.743,630.15,79.526,630.15,50.689z M695.829,50.689
		c0-17.11-5.242-28.7-17.661-28.7c-12.418,0-17.662,11.591-17.662,28.7c0,18.213,4.693,30.907,17.662,30.907
		C691.139,81.597,695.829,68.902,695.829,50.689z"/>
	<path d="M819.169,100.087h-19.455c-14.487-17.524-34.082-40.568-43.325-56.573h-0.277v56.573h-22.904V3.5h21.111
		c13.935,17.11,34.771,42.221,41.669,55.33h0.277V3.5h22.904V100.087z"/>
	<path d="M885.261,3.5l36.702,96.587h-30.908l-7.592-23.044h-29.939l-9.245,23.044h-22.767L860.836,3.5H885.261z M878.777,61.727
		c-3.176-11.453-5.938-20.696-9.385-34.494h-0.275c-3.726,13.798-7.038,23.041-10.624,34.494H878.777z"/>
	<path d="M928.445,3.5h29.115v78.511h35.328v18.076h-64.443V3.5z"/>
	<path d="M284.824,226.581v-96.587h29.115v96.587H284.824z"/>
	<path d="M412.296,226.581h-19.455c-14.487-17.525-34.082-40.568-43.327-56.574h-0.275v56.574h-22.904v-96.587h21.111
		c13.936,17.11,34.771,42.221,41.669,55.33h0.277v-55.33h22.904V226.581z"/>
	<path d="M473.694,150c-3.861-2.345-8.829-3.586-14.21-3.586c-5.659,0-8.556,2.76-8.556,5.931c0,5.382,8.141,9.797,17.524,18.491
		c12.417,11.59,15.454,18.902,15.454,28.975c0,8.556-7.038,28.425-36.013,28.425c-11.315,0-22.629-2.622-30.356-8.831l8.831-16.006
		c4.138,3.174,9.658,6.761,16.558,6.761c5.794,0,12.142-2.897,12.142-10.072c0-7.727-9.383-13.384-16.972-20.007
		c-10.072-8.831-16.006-13.938-16.006-25.803c0-15.454,15.591-25.941,33.805-25.941c12.28,0,21.94,4.415,25.251,6.486L473.694,150z"
		/>
	<path d="M512.597,226.581V148.07h-27.871v-18.076h84.857v18.076h-27.871v78.511H512.597z"/>
	<path d="M578.954,129.994h43.05c22.768,0,35.048,9.935,35.048,25.803c0,14.763-7.312,23.456-16.283,27.871l21.387,41.394
		l-31.183,3.174l-15.316-38.22h-7.59v36.565h-29.115V129.994z M608.068,171.803h8.279c7.727,0,11.591-6.623,11.591-11.868
		c0-9.52-5.934-11.865-12.142-11.865h-7.727V171.803z"/>
	<path d="M694.865,129.994v50.502c0,17.384,2.622,27.594,14.902,27.594c9.659,0,15.177-9.658,15.177-28.009v-50.087h25.114v58.367
		c0,28.838-19.595,39.876-41.672,39.876c-24.697,0-42.636-10.349-42.636-39.187v-59.056H694.865z"/>
	<path d="M880.174,226.581H851.06v-67.612h-0.279c-7.452,25.251-15.18,46.501-22.902,67.612h-18.353
		c-7.867-21.111-15.731-42.361-23.321-67.612h-0.275v67.612h-22.906v-96.587h39.464c6.623,18.488,13.244,36.842,19.732,59.47h0.275
		c6.209-22.629,12.697-40.982,19.045-59.47h38.634V226.581z"/>
	<path d="M951.24,148.07h-29.529v19.04h28.84v18.076h-28.84v23.318h35.468v18.076h-64.578v-96.587h58.639V148.07z"/>
	<path d="M1048.374,226.581h-19.455c-14.489-17.525-34.084-40.568-43.325-56.574h-0.275v56.574h-22.911v-96.587h21.113
		c13.94,17.11,34.769,42.221,41.671,55.33h0.275v-55.33h22.906V226.581z"/>
	<path d="M1081.485,226.581V148.07h-27.871v-18.076h84.861v18.076h-27.871v78.511H1081.485z"/>
	<path d="M1195.447,150c-3.861-2.345-8.831-3.586-14.21-3.586c-5.659,0-8.556,2.76-8.556,5.931c0,5.382,8.142,9.797,17.522,18.491
		c12.421,11.59,15.458,18.902,15.458,28.975c0,8.556-7.038,28.425-36.017,28.425c-11.313,0-22.626-2.622-30.354-8.831l8.831-16.006
		c4.141,3.174,9.655,6.761,16.558,6.761c5.794,0,12.142-2.897,12.142-10.072c0-7.727-9.385-13.384-16.972-20.007
		c-10.07-8.831-16.008-13.938-16.008-25.803c0-15.454,15.594-25.941,33.805-25.941c12.282,0,21.942,4.415,25.254,6.486L1195.447,150
		z"/>
	<path d="M1210.896,146.612v-13.651h-5.184v-1.754h12.999v1.754h-5.147v13.651H1210.896z M1239,146.612h-2.669V135.25h-0.074
		l-6.102,11.363h-1.262l-5.683-11.363h0.038h-0.075v11.363h-2.17v-15.405h3.083l5.799,11.553l6.292-11.553H1239V146.612z"/>
</g>
</svg>
